<svg xmlns="http://www.w3.org/2000/svg" width="42" height="64" viewBox="0 0 42 64"><defs><style>      .cls-1 {        fill: #434e6e;      }    </style></defs><g id="casement_window" data-name="casement window" transform="translate(-11)"><path id="Path_78104" data-name="Path 78104" class="cls-1" d="M29,27H15a1,1,0,0,0-1,1V60a1,1,0,0,0,1,1H29a1,1,0,0,0,1-1V28A1,1,0,0,0,29,27ZM28,59H16V29H28Z"></path><path id="Path_78105" data-name="Path 78105" class="cls-1" d="M35,61H49a1,1,0,0,0,1-1V28a1,1,0,0,0-1-1H35a1,1,0,0,0-1,1V60A1,1,0,0,0,35,61Zm1-32H48V59H36Z"></path><path id="Path_78106" data-name="Path 78106" class="cls-1" d="M16.185,44h10.63v2H16.185Z" transform="matrix(0.658, -0.753, 0.753, 0.658, -26.526, 31.554)"></path><path id="Path_78107" data-name="Path 78107" class="cls-1" d="M16.185,39h10.63v2H16.185Z" transform="matrix(0.658, -0.753, 0.753, 0.658, -22.762, 29.846)"></path><path id="Path_78108" data-name="Path 78108" class="cls-1" d="M37.185,44h10.63v2H37.185Z" transform="matrix(0.658, -0.753, 0.753, 0.658, -19.352, 47.36)"></path><path id="Path_78109" data-name="Path 78109" class="cls-1" d="M37.185,39h10.63v2H37.185Z" transform="matrix(0.658, -0.753, 0.753, 0.658, -15.589, 45.652)"></path><path id="Path_78110" data-name="Path 78110" class="cls-1" d="M32,0A21.024,21.024,0,0,0,11,21V63a1,1,0,0,0,1,1H52a1,1,0,0,0,1-1V21A21.024,21.024,0,0,0,32,0ZM13,21a19,19,0,0,1,38,0v3H13Zm0,5H31V62H13ZM51,62H33V26H51Z"></path><path id="Path_78111" data-name="Path 78111" class="cls-1" d="M50,22V21a18,18,0,1,0-36,0v1a1,1,0,0,0,1,1H49A1,1,0,0,0,50,22ZM42.547,9H21.453a15.714,15.714,0,0,1,1.255-1H41.292a15.714,15.714,0,0,1,1.255,1Zm1.923,2c.261.324.513.656.748,1H18.782c.235-.344.487-.676.748-1Zm1.9,3c.161.329.318.659.457,1H17.178c.139-.341.3-.671.457-1Zm1.108,3c.086.331.171.661.235,1H16.292c.064-.339.149-.669.235-1ZM37.515,6H26.485a15.708,15.708,0,0,1,11.03,0ZM16,21c0-.338.03-.668.051-1h31.9c.021.332.051.662.051,1Z"></path></g></svg>