<svg xmlns="http://www.w3.org/2000/svg" id="fix_window" data-name="fix window" width="64" height="64" viewBox="0 0 64 64"><defs><style>      .cls-1 {        fill: #434e6e;      }    </style></defs><path id="Path_78099" data-name="Path 78099" class="cls-1" d="M63,0H1A1,1,0,0,0,0,1V63a1,1,0,0,0,1,1H63a1,1,0,0,0,1-1V1A1,1,0,0,0,63,0ZM62,62H2V2H62Z"></path><path id="Path_78100" data-name="Path 78100" class="cls-1" d="M6,31H30a1,1,0,0,0,1-1V6a1,1,0,0,0-1-1H6A1,1,0,0,0,5,6V30A1,1,0,0,0,6,31Zm8.414-2,9.293-9.293-1.414-1.414L11.586,29H8.414L29,8.414V29ZM21.586,7,11.293,17.293l1.414,1.414L24.414,7h3.172L7,27.586V7Z"></path><path id="Path_78101" data-name="Path 78101" class="cls-1" d="M34,31H58a1,1,0,0,0,1-1V6a1,1,0,0,0-1-1H34a1,1,0,0,0-1,1V30A1,1,0,0,0,34,31ZM35,7H57V29H35Z"></path><path id="Path_78102" data-name="Path 78102" class="cls-1" d="M6,59H30a1,1,0,0,0,1-1V34a1,1,0,0,0-1-1H6a1,1,0,0,0-1,1V58A1,1,0,0,0,6,59ZM7,35H29V57H7Z"></path><path id="Path_78103" data-name="Path 78103" class="cls-1" d="M34,59H58a1,1,0,0,0,1-1V34a1,1,0,0,0-1-1H34a1,1,0,0,0-1,1V58A1,1,0,0,0,34,59Zm8.414-2,9.293-9.293-1.414-1.414L39.586,57H36.414L57,36.414V57Zm7.172-22L39.293,45.293l1.414,1.414L52.414,35h3.172L35,55.586V35Z"></path></svg>