<svg xmlns="http://www.w3.org/2000/svg" width="36" height="64" viewBox="0 0 36 64"><defs><style>      .cls-1 {        fill: #434e6e;      }    </style></defs><g id="icon-5" transform="translate(-14)"><path id="Path_77956" data-name="Path 77956" class="cls-1" d="M49,0H15a1,1,0,0,0-1,1V63a1,1,0,0,0,1,1H49a1,1,0,0,0,1-1V1A1,1,0,0,0,49,0ZM48,62H16V2H48Z"></path><path id="Path_77957" data-name="Path 77957" class="cls-1" d="M19,60H45a1,1,0,0,0,1-1V35a1,1,0,0,0-1-1H19a1,1,0,0,0-1,1V59A1,1,0,0,0,19,60Zm1-2V56H44v2ZM44,44v2H20V44ZM20,42V40H44v2Zm24,6v2H20V48Zm0,4v2H20V52Zm0-16v2H20V36Z"></path><path id="Path_77958" data-name="Path 77958" class="cls-1" d="M43,30a3,3,0,1,0-3-3A3,3,0,0,0,43,30Zm0-4a1,1,0,1,1-1,1A1,1,0,0,1,43,26Z"></path><path id="Path_77959" data-name="Path 77959" class="cls-1" d="M20,6h3V4H19a1,1,0,0,0-1,1V9h2Z"></path><path id="Path_77960" data-name="Path 77960" class="cls-1" d="M44,9h2V5a1,1,0,0,0-1-1H41V6h3Z"></path></g></svg>