<svg xmlns="http://www.w3.org/2000/svg" width="34" height="64" viewBox="0 0 34 64"><defs><style>      .cls-1 {        fill: #434e6e;      }    </style></defs><g id="icon-1" transform="translate(-15)"><path id="Path_78014" data-name="Path 78014" class="cls-1" d="M32,0A17.019,17.019,0,0,0,15,17V47a17,17,0,0,0,34,0V17A17.019,17.019,0,0,0,32,0ZM47,47a15,15,0,0,1-30,0V17a15,15,0,0,1,30,0Z"></path><path id="Path_78015" data-name="Path 78015" class="cls-1" d="M32,3A14.015,14.015,0,0,0,18,17V47a14,14,0,0,0,28,0V17A14.015,14.015,0,0,0,32,3ZM31,5.051V31H20V17A12.009,12.009,0,0,1,31,5.051ZM20,47V33H31V58.949A12.009,12.009,0,0,1,20,47ZM33,58.949V33H44V47A12.009,12.009,0,0,1,33,58.949ZM44,31H33V5.051A12.009,12.009,0,0,1,44,17Z"></path><path id="Path_78016" data-name="Path 78016" class="cls-1" d="M20.185,21h10.63v2H20.185Z" transform="matrix(0.658, -0.753, 0.753, 0.658, -7.848, 26.708)"></path><path id="Path_78017" data-name="Path 78017" class="cls-1" d="M20.185,16h10.63v2H20.185Z" transform="matrix(0.658, -0.753, 0.753, 0.658, -4.085, 25)"></path><path id="Path_78018" data-name="Path 78018" class="cls-1" d="M33.185,45h10.63v2H33.185Z" transform="matrix(0.658, -0.753, 0.753, 0.658, -21.471, 44.691)"></path><path id="Path_78019" data-name="Path 78019" class="cls-1" d="M33.185,40h10.63v2H33.185Z" transform="matrix(0.658, -0.753, 0.753, 0.658, -17.708, 42.983)"></path></g></svg>