<svg xmlns="http://www.w3.org/2000/svg" width="64" height="36" viewBox="0 0 64 36"><defs><style>      .cls-1 {        fill: #434e6e;      }    </style></defs><g id="icon-2" transform="translate(0 -14)"><path id="Path_78047" data-name="Path 78047" class="cls-1" d="M32,17A29.033,29.033,0,0,0,3,46a1,1,0,0,0,1,1H19a1,1,0,0,0,1-1V45a12,12,0,0,1,24,0v1a1,1,0,0,0,1,1H60a1,1,0,0,0,1-1A29.033,29.033,0,0,0,32,17ZM18,45H5.018a26.839,26.839,0,0,1,5.208-14.938l9.752,7.8A13.887,13.887,0,0,0,18,45Zm3.117-8.788L11.464,28.49A26.951,26.951,0,0,1,31,19.025V31.051A13.971,13.971,0,0,0,21.117,36.212ZM33,31.051V19.025a26.943,26.943,0,0,1,19.321,9.222l-9.646,7.717A13.965,13.965,0,0,0,33,31.051ZM46,45a13.9,13.9,0,0,0-2.147-7.416L53.58,29.8A26.844,26.844,0,0,1,58.98,45Z"></path><path id="Path_78048" data-name="Path 78048" class="cls-1" d="M32,14A32.036,32.036,0,0,0,0,46v3a1,1,0,0,0,1,1H63a1,1,0,0,0,1-1V46A32.036,32.036,0,0,0,32,14ZM62,48H2V46a30,30,0,0,1,60,0Z"></path><path id="Path_78049" data-name="Path 78049" class="cls-1" d="M32,34A11.013,11.013,0,0,0,21,45v1a1,1,0,0,0,1,1H42a1,1,0,0,0,1-1V45A11.013,11.013,0,0,0,32,34ZM23,45a9,9,0,0,1,18,0Z"></path></g></svg>