<svg xmlns="http://www.w3.org/2000/svg" width="50" height="64" viewBox="0 0 50 64"><defs><style>      .cls-1 {        fill: #434e6e;      }    </style></defs><g id="icon-4" transform="translate(-7)"><path id="Path_77948" data-name="Path 77948" class="cls-1" d="M32,0A25.028,25.028,0,0,0,7,25V63a1,1,0,0,0,1,1H56a1,1,0,0,0,1-1V25A25.028,25.028,0,0,0,32,0ZM55,62H9V25a23,23,0,1,1,46,0Z"></path><path id="Path_77949" data-name="Path 77949" class="cls-1" d="M32,3A22.025,22.025,0,0,0,10,25V60a1,1,0,0,0,1,1H53a1,1,0,0,0,1-1V25A22.025,22.025,0,0,0,32,3Zm14.891,8.7L35,23.586V20.414l5.707-5.707-1.414-1.414L35,17.586V5.25A19.959,19.959,0,0,1,46.891,11.7ZM29,5.25V29H12V25A20.014,20.014,0,0,1,29,5.25Zm0,31.336-17,17V35H29ZM12,56.414l17-17V59H12ZM31,59V34a1,1,0,0,0-1-1H12V31H30a1,1,0,0,0,1-1V5.051c.333-.017.662-.051,1-.051s.667.034,1,.051V30a1,1,0,0,0,1,1H52v2H34a1,1,0,0,0-1,1V59Zm4,0V35H52V59ZM52,29H35V26.414L48.155,13.259A20,20,0,0,1,49.4,15.181l-8.111,8.112L42.7,24.707l7.642-7.643A19.865,19.865,0,0,1,52,25Z"></path><rect id="Rectangle_2689" data-name="Rectangle 2689" class="cls-1" width="12.728" height="2" transform="translate(15.293 56.293) rotate(-45)"></rect><rect id="Rectangle_2690" data-name="Rectangle 2690" class="cls-1" width="14.142" height="2" transform="translate(13.293 46.293) rotate(-45)"></rect></g></svg>