<svg xmlns="http://www.w3.org/2000/svg" width="38" height="64" viewBox="0 0 38 64"><defs><style>      .cls-1 {        fill: #434e6e;      }    </style></defs><g id="icon-3" transform="translate(-13)"><path id="Path_78063" data-name="Path 78063" class="cls-1" d="M50,0H14a1,1,0,0,0-1,1V63a1,1,0,0,0,1,1H50a1,1,0,0,0,1-1V1A1,1,0,0,0,50,0ZM49,62H15V2H49Z"></path><path id="Path_78064" data-name="Path 78064" class="cls-1" d="M22,23h8a1,1,0,0,0,1-1V10a1,1,0,0,0-1-1H22a1,1,0,0,0-1,1V22A1,1,0,0,0,22,23Zm1-12h6V21H23Z"></path><path id="Path_78065" data-name="Path 78065" class="cls-1" d="M34,23h8a1,1,0,0,0,1-1V10a1,1,0,0,0-1-1H34a1,1,0,0,0-1,1V22A1,1,0,0,0,34,23Zm1-12h6V21H35Z"></path><path id="Path_78066" data-name="Path 78066" class="cls-1" d="M22,39h8a1,1,0,0,0,1-1V26a1,1,0,0,0-1-1H22a1,1,0,0,0-1,1V38A1,1,0,0,0,22,39Zm1-12h6V37H23Z"></path><path id="Path_78067" data-name="Path 78067" class="cls-1" d="M34,39h8a1,1,0,0,0,1-1V26a1,1,0,0,0-1-1H34a1,1,0,0,0-1,1V38A1,1,0,0,0,34,39Zm1-12h6V37H35Z"></path><path id="Path_78068" data-name="Path 78068" class="cls-1" d="M22,55h8a1,1,0,0,0,1-1V42a1,1,0,0,0-1-1H22a1,1,0,0,0-1,1V54A1,1,0,0,0,22,55Zm1-12h6V53H23Z"></path><path id="Path_78069" data-name="Path 78069" class="cls-1" d="M34,55h8a1,1,0,0,0,1-1V42a1,1,0,0,0-1-1H34a1,1,0,0,0-1,1V54A1,1,0,0,0,34,55Zm1-12h6V53H35Z"></path><path id="Path_78070" data-name="Path 78070" class="cls-1" d="M44,37a2,2,0,1,0,3-1.722V30.722a2,2,0,1,0-2,0v4.556A1.993,1.993,0,0,0,44,37Z"></path></g></svg>