<svg xmlns="http://www.w3.org/2000/svg" id="icon-6" width="64" height="64" viewBox="0 0 64 64"><defs><style>      .cls-1 {        fill: #434e6e;      }    </style></defs><path id="Path_77950" data-name="Path 77950" class="cls-1" d="M42.5,39h-3a2.5,2.5,0,0,1,0-5h3a2.5,2.5,0,0,1,0,5Zm-3-3a.5.5,0,0,0,0,1h3a.5.5,0,0,0,0-1Z"></path><path id="Path_77951" data-name="Path 77951" class="cls-1" d="M24.5,39h-3a2.5,2.5,0,0,1,0-5h3a2.5,2.5,0,0,1,0,5Zm-3-3a.5.5,0,0,0,0,1h3a.5.5,0,0,0,0-1Z"></path><path id="Path_77952" data-name="Path 77952" class="cls-1" d="M29,61H4a1,1,0,0,1-1-1V32A28.926,28.926,0,0,1,28.9,3.165a1,1,0,0,1,1.1.994V60A1,1,0,0,1,29,61ZM5,59H28V5.293A26.931,26.931,0,0,0,5,32Z"></path><path id="Path_77953" data-name="Path 77953" class="cls-1" d="M60,61H35a1,1,0,0,1-1-1V4.159a1,1,0,0,1,1.1-.994A28.926,28.926,0,0,1,61,32V60A1,1,0,0,1,60,61ZM36,59H59V32A26.931,26.931,0,0,0,36,5.293Z"></path><path id="Path_77954" data-name="Path 77954" class="cls-1" d="M32,64H1a1,1,0,0,1-1-1V32A32.036,32.036,0,0,1,32,0a1,1,0,0,1,1,1V63A1,1,0,0,1,32,64ZM2,62H31V2.017A30.034,30.034,0,0,0,2,32Z"></path><path id="Path_77955" data-name="Path 77955" class="cls-1" d="M63,64H32a1,1,0,0,1-1-1V1a1,1,0,0,1,1-1A32.036,32.036,0,0,1,64,32V63A1,1,0,0,1,63,64ZM33,62H62V32A30.034,30.034,0,0,0,33,2.017Z"></path></svg>