<svg xmlns="http://www.w3.org/2000/svg" id="sliding_glass_door" data-name="sliding glass door" width="64" height="64" viewBox="0 0 64 64"><defs><style>      .cls-1 {        fill: #434e6e;      }    </style></defs><path id="Path_78080" data-name="Path 78080" class="cls-1" d="M62,0H2A2,2,0,0,0,0,2V62a2,2,0,0,0,2,2H62a2,2,0,0,0,2-2V2A2,2,0,0,0,62,0Zm0,62H2V2H62Z"></path><path id="Path_78081" data-name="Path 78081" class="cls-1" d="M5,61H59a2,2,0,0,0,2-2V5a2,2,0,0,0-2-2H5A2,2,0,0,0,3,5V59A2,2,0,0,0,5,61Zm54-2H33V5H59ZM5,5H31V59H5Z"></path><path id="Path_78082" data-name="Path 78082" class="cls-1" d="M4.858,30H33.142v2H4.858Z" transform="translate(-16.355 22.515) rotate(-45)"></path><path id="Path_78083" data-name="Path 78083" class="cls-1" d="M10.722,36.5H26.278v2H10.722Z" transform="translate(-21.098 24.065) rotate(-45)"></path><path id="Path_78084" data-name="Path 78084" class="cls-1" d="M10.515,24H27.486v2H10.515Z" transform="translate(-12.113 20.757) rotate(-45)"></path><path id="Path_78085" data-name="Path 78085" class="cls-1" d="M30.858,30H59.142v2H30.858Z" transform="translate(-8.74 40.899) rotate(-45)"></path><path id="Path_78086" data-name="Path 78086" class="cls-1" d="M36.722,36.5H52.278v2H36.722Z" transform="translate(-13.483 42.45) rotate(-45)"></path><path id="Path_78087" data-name="Path 78087" class="cls-1" d="M36.515,24H53.486v2H36.515Z" transform="translate(-4.497 39.142) rotate(-45)"></path><path id="Path_78088" data-name="Path 78088" class="cls-1" d="M11,36V29a1,1,0,0,0-.684-.948l-3-1a.987.987,0,0,0-.9.136A1,1,0,0,0,6,28v9a1,1,0,0,0,1,1,.983.983,0,0,0,.316-.052l3-1A1,1,0,0,0,11,36Zm-2-.721-1,.333V29.388l1,.333Z"></path><path id="Path_78089" data-name="Path 78089" class="cls-1" d="M53,29v7a1,1,0,0,0,.684.948l3,1A.983.983,0,0,0,57,38a1,1,0,0,0,1-1V28a1,1,0,0,0-.416-.812.988.988,0,0,0-.9-.136l-3,1A1,1,0,0,0,53,29Zm2,.721,1-.333v6.224l-1-.333Z"></path></svg>