<svg xmlns="http://www.w3.org/2000/svg" width="50" height="64" viewBox="0 0 50 64"><defs><style>      .cls-1 {        fill: #434e6e;      }    </style></defs><g id="tall_window2" data-name="tall window2" transform="translate(-7)"><path id="Path_78090" data-name="Path 78090" class="cls-1" d="M56,0H8A1,1,0,0,0,7,1V63a1,1,0,0,0,1,1H56a1,1,0,0,0,1-1V1A1,1,0,0,0,56,0ZM55,62H9V2H55Z"></path><path id="Path_78091" data-name="Path 78091" class="cls-1" d="M11,22H53a1,1,0,0,0,1-1V4a1,1,0,0,0-1-1H11a1,1,0,0,0-1,1V21A1,1,0,0,0,11,22ZM12,5H52V20H12Z"></path><path id="Path_78092" data-name="Path 78092" class="cls-1" d="M11,61H30a1,1,0,0,0,1-1V24a1,1,0,0,0-1-1H11a1,1,0,0,0-1,1V60A1,1,0,0,0,11,61Zm1-2V51.414l17-17v3.172l-8.707,8.707,1.414,1.414L29,40.414V59ZM29,25v6.586l-17,17V45.414l9.707-9.707-1.414-1.414L12,42.586V25Z"></path><path id="Path_78093" data-name="Path 78093" class="cls-1" d="M53,23H34a1,1,0,0,0-1,1V60a1,1,0,0,0,1,1H53a1,1,0,0,0,1-1V24A1,1,0,0,0,53,23Zm-1,2v6.586l-17,17V45.414l9.707-9.707-1.414-1.414L35,42.586V25ZM35,59V51.414l17-17v3.172l-8.707,8.707,1.414,1.414L52,40.414V59Z"></path></g></svg>