<svg xmlns="http://www.w3.org/2000/svg" width="50" height="64" viewBox="0 0 50 64"><defs><style>      .cls-1 {        fill: #434e6e;      }    </style></defs><g id="tall_window" data-name="tall window" transform="translate(-7)"><path id="Path_78026" data-name="Path 78026" class="cls-1" d="M56,0H8A1,1,0,0,0,7,1V63a1,1,0,0,0,1,1H56a1,1,0,0,0,1-1V1A1,1,0,0,0,56,0ZM55,62H9V2H55Z"></path><path id="Path_78027" data-name="Path 78027" class="cls-1" d="M34,31H53a1,1,0,0,0,1-1V4a1,1,0,0,0-1-1H34a1,1,0,0,0-1,1V30A1,1,0,0,0,34,31Zm1-2V27.414l17-17v3.172l-8.707,8.707,1.414,1.414L52,16.414V29ZM52,5V7.586l-17,17V21.414l9.707-9.707-1.414-1.414L35,18.586V5Z"></path><path id="Path_78028" data-name="Path 78028" class="cls-1" d="M34,61H53a1,1,0,0,0,1-1V34a1,1,0,0,0-1-1H34a1,1,0,0,0-1,1V60A1,1,0,0,0,34,61Zm1-2V56.414l17-17v3.172l-8.707,8.707,1.414,1.414L52,45.414V59ZM52,35v1.586l-17,17V50.414l9.707-9.707-1.414-1.414L35,47.586V35Z"></path><path id="Path_78029" data-name="Path 78029" class="cls-1" d="M11,61H30a1,1,0,0,0,1-1V4a1,1,0,0,0-1-1H11a1,1,0,0,0-1,1V60A1,1,0,0,0,11,61Zm1-2V41.414l17-17v3.172l-8.707,8.707,1.414,1.414L29,30.414V59ZM29,5V21.586l-17,17V35.414l9.707-9.707-1.414-1.414L12,32.586V5Z"></path></g></svg>